<?xml version="1.0" standalone="no"?>
<!DOCTYPE svg PUBLIC "-//W3C//DTD SVG 20010904//EN"
 "http://www.w3.org/TR/2001/REC-SVG-20010904/DTD/svg10.dtd">
<svg version="1.0" xmlns="http://www.w3.org/2000/svg"
 width="1059.000000pt" height="1235.000000pt" viewBox="0 0 1059.000000 1235.000000"
 preserveAspectRatio="xMidYMid meet">
<metadata>
Created by potrace 1.16, written by Peter Selinger 2001-2019
</metadata>
<g transform="translate(0.000000,1235.000000) scale(0.100000,-0.100000)"
fill="#000000" stroke="none">
<path d="M4065 12344 c-44 -7 -124 -34 -169 -56 -40 -21 -106 -80 -106 -97 0
-5 -21 -13 -47 -16 -46 -6 -173 -64 -201 -92 -8 -7 -32 -26 -55 -42 -23 -16
-53 -42 -67 -57 -34 -40 -130 -184 -130 -196 0 -5 -13 -37 -29 -71 -80 -169
-160 -346 -170 -377 -19 -58 -63 -251 -72 -315 -15 -112 -28 -200 -34 -222 -6
-27 -22 -30 -28 -5 -4 13 -5 13 -6 -4 0 -12 -7 -27 -15 -33 -7 -6 -16 -35 -20
-64 -3 -28 -8 -66 -12 -83 -3 -18 0 -58 6 -90 10 -48 20 -66 58 -104 62 -62
91 -80 130 -80 17 0 32 -3 32 -7 0 -5 30 -33 66 -63 40 -33 74 -70 85 -96 11
-23 31 -52 45 -64 20 -19 24 -33 24 -77 0 -51 10 -81 37 -111 11 -11 33 -17
76 -21 4 -1 13 -13 20 -28 6 -16 17 -34 24 -41 22 -22 15 -73 -19 -149 -18
-40 -36 -73 -39 -73 -4 0 -10 20 -13 44 -8 51 -37 76 -88 76 -49 0 -128 -78
-128 -127 0 -20 -59 -93 -75 -93 -13 0 -60 -44 -95 -88 -14 -17 -29 -31 -33
-32 -5 0 -19 -8 -32 -17 -12 -10 -33 -25 -45 -33 -12 -8 -50 -43 -85 -76 -34
-34 -72 -65 -84 -69 -11 -3 -21 -10 -21 -14 0 -5 -16 -11 -35 -14 -20 -3 -53
-20 -74 -36 -22 -17 -46 -31 -54 -31 -26 0 -109 -91 -175 -191 -71 -108 -110
-214 -124 -329 -23 -200 -30 -280 -37 -465 -9 -203 -15 -264 -31 -300 -5 -11
-11 -36 -14 -55 -8 -59 -17 -93 -36 -135 -45 -101 -89 -247 -106 -350 -6 -38
-24 -104 -35 -130 -4 -11 -11 -45 -14 -75 -3 -30 -9 -93 -14 -140 -5 -47 -14
-105 -19 -130 -10 -47 -68 -223 -83 -252 -5 -10 -9 -25 -9 -33 0 -8 -4 -23 -9
-33 -5 -9 -16 -33 -24 -52 -32 -75 -61 -139 -115 -250 -55 -113 -68 -157 -79
-255 -4 -36 -17 -66 -46 -110 -46 -68 -58 -79 -105 -100 -22 -10 -31 -19 -26
-27 4 -7 4 -10 -1 -6 -11 11 -47 -11 -39 -24 4 -6 3 -8 -3 -5 -14 9 -65 -32
-57 -45 4 -7 2 -8 -4 -4 -7 4 -12 1 -12 -9 0 -9 -5 -13 -10 -10 -6 3 -14 -5
-20 -19 -5 -14 -12 -26 -15 -26 -4 0 -3 6 0 13 4 6 -3 1 -14 -13 -31 -37 -67
-117 -118 -263 -37 -106 -48 -148 -63 -232 -22 -126 -27 -143 -64 -230 -7 -16
-30 -70 -51 -120 -21 -49 -45 -108 -55 -130 -57 -134 -80 -192 -80 -207 0 -9
-5 -20 -10 -23 -6 -3 -10 -15 -10 -26 0 -10 -4 -27 -9 -37 -15 -28 -51 -111
-51 -118 0 -14 -70 -105 -126 -164 -34 -36 -87 -102 -118 -147 -30 -45 -74
-100 -96 -123 -22 -22 -40 -45 -40 -50 0 -6 -17 -10 -39 -10 -22 0 -44 -6 -51
-15 -9 -11 -33 -15 -89 -15 -52 0 -83 -5 -97 -15 -10 -8 -29 -15 -41 -15 -14
0 -23 -6 -23 -16 0 -10 -6 -14 -14 -11 -8 3 -17 -1 -20 -10 -4 -8 -13 -13 -20
-10 -14 5 -32 -21 -22 -31 3 -2 34 1 69 7 35 6 92 11 126 11 34 0 74 6 90 14
15 8 59 20 97 27 83 14 97 23 89 60 -6 27 5 39 70 75 11 6 25 24 30 40 15 42
38 73 158 205 59 66 107 127 107 136 0 9 6 24 13 32 15 17 77 191 77 214 0 8
18 50 40 95 22 44 40 86 40 94 0 7 6 22 14 33 7 11 19 38 26 60 7 22 35 87 62
145 41 87 52 123 64 207 8 56 28 143 45 193 16 50 32 111 36 135 3 25 9 45 13
45 8 0 40 67 40 85 0 27 171 189 229 218 30 15 62 27 71 27 8 0 21 15 29 33 7
17 28 57 46 87 28 47 33 67 37 135 5 77 9 88 96 268 51 103 92 190 92 194 0 3
11 27 25 54 13 27 27 66 30 86 4 21 25 94 47 163 36 111 41 141 48 260 5 103
11 146 27 181 11 25 23 67 28 95 13 87 75 286 111 352 26 50 34 77 34 118 0
29 9 81 21 116 41 124 58 250 37 276 -6 7 -8 32 -4 61 3 26 2 59 -2 71 -5 14
-5 43 1 69 5 25 11 73 12 106 8 157 22 250 41 266 8 6 14 25 14 41 0 39 22 89
54 121 14 14 26 37 26 52 0 29 32 65 59 65 12 0 21 9 25 24 4 17 17 28 43 37
21 6 63 24 93 39 30 15 85 42 122 60 48 23 75 44 98 76 33 47 41 50 136 57 38
3 86 16 125 33 35 16 69 28 76 26 7 -2 13 2 13 9 0 6 7 8 16 5 9 -4 22 -2 29
4 6 5 41 14 78 19 36 5 71 12 77 16 6 3 24 -1 42 -9 54 -27 56 -22 27 91 -20
75 10 122 93 147 11 3 15 14 14 38 -6 72 67 155 126 144 21 -4 30 0 39 17 6
12 21 30 33 39 11 9 17 20 13 24 -4 4 -13 2 -19 -4 -13 -13 -29 -16 -27 -4 1
4 1 18 0 31 -1 20 -3 22 -16 11 -9 -7 -19 -9 -23 -5 -4 4 -1 10 6 12 16 6 15
30 -2 36 -17 7 -42 55 -51 99 -4 18 -14 42 -21 53 -24 37 -53 165 -65 286 -6
66 -15 133 -20 147 -7 21 -7 18 -3 -14 9 -71 12 -250 3 -229 -4 11 -8 43 -9
70 -1 37 -4 45 -10 30 -5 -11 -6 23 -2 80 3 55 5 141 4 191 -1 49 3 110 8 135
l9 44 -1 -50 c-1 -80 0 -81 35 -43 74 81 164 123 243 114 30 -3 44 -1 44 7 0
8 18 11 56 9 30 -2 68 2 85 8 55 23 41 29 -121 50 -41 6 -79 12 -85 13 -5 2
-18 -4 -28 -14 -11 -10 -25 -15 -33 -12 -8 3 -26 2 -42 -2 -25 -7 -25 -8 -7
-15 19 -8 18 -9 -4 -9 -29 -1 -86 -35 -105 -63 -15 -21 -15 -21 -21 5 -11 43
12 226 33 264 7 12 9 29 6 37 -3 9 5 41 20 71 14 30 28 66 32 80 4 17 11 24
21 21 8 -3 11 -1 8 4 -3 6 -3 15 1 22 12 20 22 -21 25 -102 l2 -75 8 85 c8
100 17 140 36 159 8 7 22 25 31 39 32 49 78 95 138 138 34 24 65 44 69 44 4 0
18 9 31 19 21 17 37 19 132 15 59 -2 123 -10 142 -18 19 -8 67 -27 105 -42
129 -52 229 -137 312 -269 14 -22 32 -47 40 -55 70 -76 71 -78 47 -115 -10
-15 -21 -22 -31 -18 -11 4 -14 2 -9 -5 5 -8 -2 -12 -23 -12 -16 0 -32 -4 -35
-9 -3 -4 32 -11 78 -15 47 -3 92 -9 102 -13 25 -9 85 -143 73 -165 -13 -25
-41 -12 -33 16 6 20 6 20 -8 2 -9 -11 -20 -16 -27 -11 -17 10 -92 13 -116 4
-11 -4 -31 -10 -45 -13 -40 -8 -117 -85 -125 -125 -6 -26 -4 -32 6 -29 8 3 14
10 14 16 0 6 6 17 13 24 11 11 16 9 30 -9 48 -62 194 -48 274 27 19 18 23 18
47 4 52 -30 147 -203 175 -315 20 -82 35 -326 25 -418 -11 -101 -93 -282 -160
-351 -8 -8 -22 -27 -31 -41 -9 -14 -38 -49 -65 -78 -26 -29 -51 -59 -55 -66
-4 -6 -26 -25 -50 -41 -24 -16 -45 -32 -48 -35 -25 -30 -109 -48 -242 -52 -42
-1 -74 -5 -72 -9 10 -15 199 -107 204 -99 10 16 48 6 77 -19 23 -20 25 -25 11
-28 -14 -3 -9 -14 28 -60 48 -61 126 -243 183 -432 16 -52 65 -185 109 -296
44 -110 101 -270 127 -355 25 -84 70 -228 100 -319 85 -260 148 -525 199 -835
14 -82 46 -262 72 -400 37 -200 47 -280 51 -397 6 -162 6 -162 66 -132 66 35
232 84 259 78 15 -3 41 -21 57 -41 25 -30 36 -35 74 -37 25 -1 53 -8 62 -16
33 -27 150 -213 204 -325 30 -60 60 -117 67 -125 7 -8 20 -35 30 -60 10 -25
28 -59 41 -76 13 -17 23 -35 23 -39 0 -4 11 -23 25 -41 14 -18 25 -35 25 -39
0 -3 18 -33 40 -66 22 -33 40 -65 40 -70 0 -5 5 -9 10 -9 6 0 10 -5 10 -10 0
-6 15 -32 33 -58 59 -84 167 -263 167 -276 0 -7 9 -22 20 -34 11 -12 31 -41
43 -64 13 -24 33 -60 45 -81 12 -21 22 -44 22 -52 0 -8 3 -15 8 -15 4 0 16
-17 27 -37 11 -21 28 -47 38 -57 9 -11 17 -25 17 -32 0 -6 7 -17 15 -24 8 -7
15 -20 15 -29 0 -9 17 -42 37 -74 20 -33 38 -65 39 -74 1 -8 12 -34 23 -59 12
-24 21 -49 21 -56 0 -7 5 -5 11 5 13 23 5 81 -28 181 -19 59 -47 110 -112 203
-47 69 -97 142 -111 163 -14 20 -37 55 -51 76 -14 22 -39 64 -55 94 -16 30
-35 61 -41 68 -7 7 -13 17 -13 22 0 5 -6 15 -12 22 -7 7 -20 27 -28 43 -8 17
-33 59 -56 95 -37 58 -195 310 -230 367 -47 75 -127 221 -166 298 -24 50 -68
134 -96 187 -29 54 -52 104 -52 113 0 8 -9 31 -19 52 -11 21 -23 55 -26 75 -5
23 -11 35 -18 31 -6 -4 -8 0 -4 10 3 9 -5 41 -18 70 -13 30 -31 85 -39 123
-30 133 -49 209 -57 229 -12 28 -49 247 -49 289 0 19 -4 46 -10 61 -5 14 -15
101 -20 193 -6 92 -15 187 -20 212 -6 25 -11 75 -12 113 -1 37 -6 67 -10 67
-4 0 -8 20 -8 44 0 25 -4 47 -8 50 -5 3 -7 36 -6 73 6 215 4 403 -5 442 -5 26
-15 81 -21 124 -12 79 -38 168 -39 133 -1 -15 -4 -16 -15 -7 -9 7 -14 30 -13
57 0 29 -5 49 -14 55 -11 7 -11 9 4 9 19 0 22 22 7 50 -7 12 -5 34 6 69 8 27
12 61 8 75 -3 13 -1 27 5 31 6 3 9 10 6 15 -3 5 -1 19 5 31 8 15 9 24 1 32 -7
7 -13 2 -21 -17 -5 -15 -14 -24 -20 -21 -10 6 -15 -13 -11 -53 1 -12 -2 -29
-7 -38 -8 -15 -9 14 -3 146 1 37 3 42 12 27 6 -10 9 -27 6 -38 -3 -10 -2 -21
3 -24 11 -7 22 24 13 37 -3 6 -2 9 3 6 5 -3 10 22 12 57 2 35 -2 66 -7 69 -5
4 -13 27 -17 51 -7 48 1 99 15 91 5 -3 7 16 5 42 -2 26 -1 39 2 30 3 -10 11
-15 20 -11 9 3 14 -2 14 -15 0 -12 5 -24 10 -27 6 -3 10 -18 10 -32 l0 -27 20
22 c20 21 28 58 10 47 -5 -3 -12 7 -16 22 -4 15 -11 31 -17 34 -16 11 1 56 24
62 12 3 18 10 14 17 -4 6 -15 8 -26 5 -13 -4 -19 -2 -19 8 0 9 11 14 31 15 17
0 33 3 36 6 3 2 -9 25 -26 50 -20 29 -31 57 -31 80 0 19 -4 45 -9 58 -5 13
-19 57 -31 98 -12 41 -26 83 -31 92 -5 10 -9 28 -9 40 0 12 -4 35 -10 52 -5
17 -23 72 -39 121 -16 50 -36 124 -46 165 -9 41 -26 92 -37 114 -11 21 -15 35
-9 32 16 -10 14 -1 -9 36 -21 34 -30 79 -10 48 6 -9 10 -10 10 -3 0 6 -6 18
-14 25 -7 8 -13 30 -11 51 2 46 -9 67 -27 49 -9 -9 -9 -19 1 -48 7 -19 10 -38
7 -41 -3 -4 -6 1 -6 11 0 9 -4 14 -10 11 -5 -3 -10 0 -10 8 0 8 -7 28 -15 43
-8 16 -17 55 -21 87 -4 31 -11 60 -16 63 -5 3 -4 12 3 20 9 11 9 14 -1 14 -9
0 -11 13 -6 48 7 53 -3 150 -14 133 -5 -9 -67 207 -74 259 -1 8 -8 26 -15 39
-8 14 -9 21 -2 17 16 -10 14 15 -3 28 -7 6 -25 43 -39 81 -68 185 -99 260
-132 332 -56 119 -140 256 -222 364 -51 68 -199 209 -219 209 -8 0 -14 3 -14
8 0 11 -197 118 -260 141 -30 10 -84 24 -120 30 -72 13 -308 22 -355 15z
m-770 -1596 c14 2 25 0 25 -5 0 -6 12 -22 27 -37 21 -21 24 -29 14 -36 -9 -5
-11 -17 -7 -34 3 -14 9 -37 12 -51 5 -20 3 -25 -14 -25 -11 0 -22 -5 -24 -12
-5 -15 -84 6 -111 30 -16 14 -31 11 -33 -9 -1 -5 -3 -12 -4 -16 -1 -5 -3 -15
-4 -23 -1 -19 -79 -44 -111 -36 -37 9 -62 39 -75 86 -6 23 -13 47 -16 54 -4
12 59 85 75 87 3 0 20 2 36 5 17 2 47 -3 67 -12 l37 -17 38 33 c20 18 39 28
40 23 2 -6 15 -8 28 -5z"/>
<path d="M3967 10710 c-16 -5 -35 -6 -43 -3 -8 3 -14 0 -14 -5 0 -6 -16 -14
-35 -18 -20 -3 -40 -15 -46 -26 -7 -13 -16 -17 -30 -13 -11 4 -19 2 -19 -4 0
-6 5 -11 11 -11 5 0 7 -4 4 -10 -3 -5 -15 -10 -26 -10 -10 0 -19 -5 -19 -12 0
-6 -3 -8 -7 -5 -9 9 -33 -12 -33 -29 0 -8 10 -14 23 -14 12 0 31 -7 41 -15 33
-25 228 -13 246 14 4 7 11 12 16 11 9 -2 44 58 44 77 0 7 6 13 13 13 19 -1 50
-28 43 -39 -4 -6 6 -9 24 -9 16 1 30 4 30 8 0 11 -78 80 -91 80 -5 0 -8 4 -5
9 3 5 -9 9 -28 9 -19 0 -42 2 -52 5 -11 3 -32 1 -47 -3z"/>
<path d="M4856 9985 c-16 -13 -45 -26 -65 -30 -20 -4 -51 -14 -68 -22 -18 -8
-39 -13 -47 -10 -8 3 -16 2 -18 -2 -2 -4 -18 -11 -36 -14 -19 -4 -31 -3 -27 2
3 5 -4 7 -15 4 -11 -3 -23 -9 -26 -14 -3 -5 -32 -9 -65 -9 -33 0 -70 -5 -82
-12 -12 -7 -58 -15 -101 -18 -44 -3 -81 -9 -82 -15 -2 -5 26 -19 63 -31 57
-18 71 -20 107 -9 30 9 35 13 21 16 -11 3 29 12 89 22 60 10 128 27 152 37 24
11 48 20 54 20 18 0 113 42 139 62 13 10 32 18 42 18 11 0 19 7 19 15 0 22
-21 18 -54 -10z"/>
<path d="M3595 9150 c-3 -5 -4 -14 -1 -19 3 -4 1 -23 -4 -42 -7 -22 -6 -35 1
-39 5 -4 11 -16 12 -28 0 -12 7 -24 14 -26 20 -8 16 -26 -6 -26 -13 0 -20 -10
-25 -32 -6 -31 -6 -31 -27 -12 -22 19 -22 19 -14 -6 9 -31 24 -41 50 -35 11 3
14 2 8 -1 -18 -8 -16 -24 1 -24 8 0 17 -8 19 -17 3 -10 5 -4 4 12 -1 21 3 30
13 30 12 0 15 -13 13 -62 -2 -58 0 -64 29 -90 56 -51 78 -75 73 -84 -3 -4 -1
-10 5 -14 5 -3 10 -1 10 5 0 6 12 3 28 -8 15 -11 61 -35 102 -53 41 -18 82
-38 91 -46 8 -7 19 -13 22 -13 4 0 29 -21 57 -47 44 -42 53 -58 71 -123 11
-41 25 -91 30 -110 6 -19 14 -51 18 -70 4 -19 20 -61 34 -92 15 -32 29 -70 33
-85 4 -16 18 -48 32 -73 18 -33 25 -62 27 -107 1 -35 5 -66 8 -70 9 -9 9 -24
-1 -20 -7 2 -12 -6 -12 -23 0 -5 19 -22 43 -37 53 -34 77 -58 77 -77 0 -15 55
-66 70 -66 17 0 61 -52 76 -89 12 -31 23 -40 55 -50 28 -8 39 -17 35 -26 -3
-9 0 -12 10 -8 7 3 14 0 14 -6 0 -6 5 -11 10 -11 14 0 12 67 -5 200 -13 102
-24 164 -56 330 -4 25 -15 90 -23 145 -8 55 -22 123 -30 150 -9 28 -16 60 -16
73 0 12 -4 22 -9 22 -5 0 -11 -10 -13 -22 -2 -13 -5 6 -5 42 -4 160 -5 174
-20 154 -7 -10 -13 -36 -13 -58 0 -37 -1 -39 -15 -20 -8 10 -15 29 -15 42 0
12 -4 22 -9 22 -5 0 -15 20 -23 45 -19 56 -6 82 35 71 25 -6 27 -4 27 29 0 46
-17 73 -101 161 -33 34 -178 110 -224 118 -16 2 -55 11 -85 19 -30 8 -118 31
-195 51 -197 52 -199 54 -261 208 -18 46 -36 59 -49 38z"/>
<path d="M6310 9121 c0 -5 6 -12 13 -14 7 -3 4 -6 -6 -6 -12 -1 -15 -5 -10
-13 4 -7 6 -21 5 -31 -2 -9 15 -40 37 -68 46 -58 76 -118 121 -240 71 -196
107 -388 135 -733 15 -181 40 -325 111 -645 26 -116 44 -161 44 -108 0 15 5
27 10 27 6 0 10 -38 11 -92 1 -96 15 -84 18 15 1 34 4 46 13 41 7 -4 8 -3 4 5
-4 6 -12 9 -17 6 -5 -4 -7 9 -4 30 3 27 -1 40 -15 52 -14 13 -16 21 -9 40 6
16 5 32 -3 46 -7 12 -13 36 -14 52 0 17 -7 55 -14 85 -15 64 -24 123 -39 239
-6 46 -14 88 -17 93 -6 10 -21 168 -30 318 -3 41 -9 84 -14 95 -5 11 -11 45
-14 75 -2 30 -9 78 -16 105 -6 28 -13 66 -16 85 -3 19 -9 44 -14 55 -4 11 -20
59 -35 106 -14 47 -35 100 -46 118 -10 17 -19 38 -19 45 0 21 -99 168 -109
162 -5 -3 -15 2 -22 12 -13 15 -12 16 4 3 9 -7 17 -9 17 -4 0 5 -13 19 -30 31
-16 13 -30 18 -30 13z"/>
<path d="M6800 7045 c0 -23 60 -243 80 -294 11 -29 106 -224 211 -434 186
-374 255 -524 366 -797 30 -74 63 -154 74 -178 11 -24 42 -103 69 -175 83
-228 111 -297 120 -297 5 0 11 14 15 30 4 17 11 30 17 30 6 0 7 -8 3 -17 -4
-13 -3 -15 5 -7 8 8 5 22 -9 50 -11 21 -32 75 -46 119 -15 43 -42 118 -62 164
-19 47 -41 106 -50 131 -8 25 -23 64 -34 87 -10 24 -19 46 -19 51 0 4 -13 34
-30 67 -16 33 -30 67 -30 76 0 8 -12 40 -26 70 -27 56 -51 110 -83 182 -58
134 -89 198 -118 245 -18 29 -33 57 -33 62 0 5 -9 25 -19 43 -26 46 -31 56
-90 177 -28 58 -57 116 -65 130 -59 104 -136 309 -166 438 -7 28 -15 53 -18
54 -29 6 -62 3 -62 -7z"/>
<path d="M4314 6171 c6 -10 -31 -45 -59 -56 -19 -7 -19 -7 3 -16 35 -13 17
-29 -31 -27 l-42 1 45 7 45 7 -52 1 c-29 1 -52 -1 -52 -5 5 -31 -18 -40 -161
-62 -30 -5 -45 -9 -32 -10 18 -1 22 -7 22 -36 0 -19 -5 -44 -12 -54 -15 -25
-3 -54 20 -47 11 4 28 -4 45 -19 15 -14 35 -25 45 -23 11 2 22 -8 32 -29 8
-18 24 -34 35 -36 l20 -3 -20 -8 c-11 -4 -33 -13 -50 -21 -16 -7 -70 -27 -120
-43 -210 -70 -224 -76 -212 -93 8 -10 20 -13 37 -9 25 7 25 7 -5 11 -16 3 12
5 63 6 58 1 99 7 109 15 10 8 40 11 88 9 55 -2 80 2 99 14 27 18 244 75 286
75 34 0 130 48 130 65 0 7 7 19 16 26 11 9 14 23 10 49 -4 26 -3 31 5 18 5
-10 19 -18 29 -18 11 0 20 -5 20 -10 0 -6 24 5 52 25 61 41 85 46 46 10 -18
-17 -25 -31 -21 -47 4 -18 2 -20 -6 -8 -5 8 -13 11 -17 8 -3 -4 1 -14 10 -23
9 -9 16 -12 16 -6 0 6 9 11 20 11 11 0 20 -3 20 -8 0 -8 -36 -42 -45 -42 -2 0
-21 -11 -41 -25 -35 -24 -38 -24 -51 -8 -13 17 -14 16 -8 -4 4 -14 2 -23 -4
-23 -6 0 -11 5 -11 12 0 7 -11 -3 -25 -22 -25 -34 -33 -70 -16 -70 5 0 11 4
13 8 2 5 64 39 138 75 146 71 204 85 355 85 38 0 99 3 135 8 l65 7 -95 18
c-119 22 -200 49 -325 104 -16 8 -47 21 -68 29 -21 9 -36 19 -34 23 3 5 -7 8
-22 9 -14 0 -96 40 -180 88 -125 72 -159 87 -182 82 -16 -3 -41 -1 -55 4 -14
6 -23 6 -20 1z"/>
<path d="M7930 4463 c-15 -49 10 -274 40 -365 26 -77 84 -177 164 -283 95
-126 93 -124 137 -121 28 2 39 -1 39 -10 0 -8 -4 -14 -10 -14 -5 0 -10 -5 -10
-12 0 -8 6 -6 17 4 15 16 17 14 35 -18 21 -40 22 -48 6 -38 -7 5 -3 -5 10 -20
12 -16 19 -33 15 -40 -4 -6 1 -5 10 3 19 15 23 26 5 15 -8 -5 -9 -2 -5 9 4 12
1 17 -11 17 -15 0 -15 2 -2 11 11 8 12 12 3 16 -7 2 -13 9 -13 15 0 19 -64 98
-70 87 -5 -7 -9 -5 -13 6 -4 9 -3 13 3 10 24 -15 6 18 -31 57 -84 88 -175 236
-213 349 -20 58 -36 124 -36 147 0 22 -4 44 -10 47 -5 3 -10 20 -10 36 0 28
-28 129 -36 129 -2 0 -8 -17 -14 -37z"/>
<path d="M5020 4350 c-24 -13 -29 -19 -16 -20 15 0 13 -6 -15 -39 -19 -22 -39
-40 -44 -40 -12 -1 -37 -54 -34 -73 3 -26 -1 -39 -11 -33 -6 4 -27 -10 -46
-29 -20 -20 -42 -36 -49 -36 -7 0 -23 -16 -36 -35 -13 -19 -32 -35 -42 -35
-10 0 -20 -7 -23 -15 -4 -8 -12 -15 -20 -15 -8 0 -14 -4 -14 -10 0 -5 -5 -10
-11 -10 -6 0 -25 -11 -43 -25 -18 -14 -36 -25 -40 -25 -4 0 -26 -18 -49 -40
-23 -22 -51 -49 -63 -60 -12 -11 -26 -20 -32 -20 -6 0 -17 -6 -24 -12 -7 -7
-32 -26 -56 -42 -23 -16 -53 -39 -67 -51 -13 -13 -39 -28 -58 -34 -19 -7 -43
-21 -53 -33 -11 -11 -38 -29 -60 -39 -23 -10 -47 -26 -54 -34 -7 -8 -20 -15
-30 -15 -9 0 -25 -9 -35 -20 -10 -11 -24 -20 -32 -20 -7 0 -13 -3 -13 -7 0 -9
-48 -33 -66 -33 -6 0 -39 -18 -72 -40 -33 -22 -69 -40 -81 -40 -12 0 -35 -6
-50 -14 -16 -9 -69 -17 -122 -20 -52 -2 -108 -10 -124 -16 -17 -6 -36 -13 -43
-15 -7 -3 -11 -9 -8 -14 3 -5 -3 -7 -14 -4 -16 4 -18 8 -9 19 7 8 9 17 6 21
-4 3 -12 -7 -19 -23 -7 -16 -18 -33 -25 -37 -7 -4 -13 -16 -13 -25 -1 -9 -12
-35 -26 -57 -13 -22 -27 -48 -30 -57 -4 -12 -17 -18 -35 -18 -21 0 -29 -5 -29
-17 0 -16 -2 -16 -11 -3 -7 11 -9 -1 -4 -42 5 -44 3 -62 -11 -82 -19 -30 -41
-33 -59 -10 -10 14 -15 9 -38 -37 -15 -30 -38 -74 -52 -99 -29 -52 -31 -72 -9
-95 16 -15 16 -19 0 -52 -35 -74 -113 -161 -226 -252 -14 -12 -30 -25 -36 -30
-6 -5 -20 -12 -32 -15 -14 -5 -22 -16 -22 -31 0 -24 -27 -41 -105 -65 -22 -7
-48 -16 -57 -21 -10 -5 -29 -9 -42 -9 -13 0 -26 -6 -29 -12 -3 -10 11 -13 54
-12 33 1 59 -2 59 -7 0 -5 5 -9 10 -9 6 0 10 7 10 15 0 16 12 20 23 8 4 -3 2
-12 -5 -20 -9 -11 -7 -12 7 -7 13 5 16 4 11 -4 -4 -7 -15 -12 -24 -13 -11 0
-12 -2 -4 -6 15 -6 44 16 37 27 -3 5 4 6 15 3 12 -3 20 0 20 6 0 7 4 10 9 7 5
-4 20 6 33 22 12 15 49 47 81 71 31 24 57 49 57 56 0 7 7 16 16 19 15 6 15 4
3 -11 -8 -10 7 2 33 26 26 25 44 49 41 54 -3 6 -1 7 5 3 7 -4 36 30 74 88 53
80 68 97 95 102 18 3 37 12 44 20 6 8 19 14 29 14 10 0 23 7 30 15 7 8 23 15
35 15 13 0 25 7 29 15 3 8 17 15 31 15 14 0 28 7 31 15 4 8 15 15 26 15 11 0
32 6 46 14 15 7 53 26 85 41 31 15 60 32 63 36 3 5 14 9 25 9 11 0 22 7 25 15
4 8 15 15 25 15 11 0 22 7 25 15 4 8 13 15 20 15 8 0 17 7 20 15 4 8 13 15 20
15 8 0 17 7 20 15 4 8 14 15 24 15 9 0 38 16 63 35 l46 35 149 0 c121 0 152 3
162 15 7 8 28 15 47 15 21 0 36 6 39 15 4 8 16 15 29 15 12 0 28 7 35 15 7 8
19 15 27 15 8 0 61 36 118 80 57 44 108 80 115 80 10 0 47 25 125 85 10 8 23
15 28 15 5 0 29 14 54 30 24 17 50 30 57 30 8 0 19 7 26 15 7 8 25 15 40 15
15 0 33 7 40 15 7 8 23 15 36 15 12 0 29 7 38 15 8 8 27 15 43 15 16 0 33 4
39 9 13 14 103 61 115 61 6 0 17 7 26 16 10 9 29 14 50 12 34 -3 37 -6 82
-104 25 -56 58 -119 72 -140 14 -21 35 -61 48 -89 25 -54 70 -110 176 -221 39
-40 90 -97 115 -125 44 -51 492 -503 736 -741 65 -64 135 -134 155 -155 20
-21 78 -80 130 -130 104 -103 172 -177 199 -218 10 -16 32 -40 48 -54 34 -30
112 -144 112 -163 0 -7 16 -39 36 -71 56 -90 174 -431 174 -502 0 -23 4 -45 9
-50 5 -6 12 -41 14 -80 11 -150 62 -321 105 -348 7 -5 10 -12 7 -17 -3 -4 2
-11 11 -14 8 -3 12 -11 8 -17 -5 -8 -1 -8 14 0 14 7 21 8 24 0 2 -5 11 -11 20
-12 9 -2 23 -9 32 -16 18 -15 22 -36 5 -25 -8 4 -8 0 0 -15 13 -23 23 -29 15
-7 -3 7 2 16 10 19 9 4 17 -1 21 -14 7 -21 7 -21 50 -24 49 -3 75 -14 68 -31
-4 -11 -9 -12 -19 -3 -9 8 -14 8 -14 1 0 -16 34 -24 103 -22 34 1 65 1 70 0 4
-2 11 -3 16 -4 5 0 13 -5 18 -10 5 -5 2 -6 -6 -1 -9 5 -12 4 -7 -3 4 -7 36
-12 81 -12 55 0 74 -4 79 -15 4 -11 20 -15 55 -15 34 0 51 -4 55 -15 3 -8 16
-15 29 -15 13 0 32 -7 43 -15 10 -8 28 -15 39 -15 11 -1 43 -15 70 -31 28 -16
57 -32 65 -35 8 -3 22 -10 30 -15 8 -5 22 -12 30 -16 8 -3 19 -12 23 -20 4 -7
19 -13 31 -13 13 0 26 -7 30 -15 5 -13 52 -15 345 -15 l340 0 18 30 c15 27 23
30 64 30 29 0 51 6 59 15 7 8 26 15 42 15 39 0 79 24 107 66 20 28 30 34 61
34 21 0 43 7 50 15 7 8 25 15 40 15 30 0 85 55 96 95 6 21 66 65 88 65 8 0 19
7 26 15 7 8 18 15 25 15 7 0 15 7 19 15 3 8 14 15 25 15 11 0 26 7 35 15 8 8
29 15 46 15 38 0 73 17 64 32 -4 6 1 8 15 3 14 -4 21 -2 21 7 0 13 46 54 80
70 8 5 0 5 -18 2 -18 -3 -38 -1 -45 4 -42 33 -158 8 -247 -52 -79 -54 -114
-67 -149 -54 -34 12 -51 -15 -44 -70 4 -32 2 -47 -12 -62 -24 -26 -79 -44
-144 -44 -57 -1 -65 -7 -76 -58 -7 -35 -50 -58 -109 -58 -25 0 -69 -5 -98 -12
-29 -6 -56 -11 -60 -10 -5 1 -8 -14 -8 -33 0 -69 -58 -91 -164 -63 -36 10 -51
9 -83 -3 -122 -48 -313 0 -513 129 -135 87 -381 171 -561 191 -47 5 -124 19
-170 31 -46 12 -94 23 -106 25 -31 3 -129 89 -147 128 -26 56 -62 229 -71 337
-9 124 -25 200 -59 284 -20 49 -36 99 -36 112 0 12 -4 26 -10 29 -5 3 -10 14
-10 24 0 10 -7 32 -15 47 -8 16 -15 37 -15 46 0 24 -11 49 -20 43 -4 -2 -16
15 -26 38 -10 23 -24 48 -31 55 -7 8 -11 18 -7 23 3 5 -2 12 -11 15 -9 4 -14
12 -11 19 3 8 -2 16 -10 19 -9 3 -12 10 -9 16 3 5 0 10 -7 10 -12 1 -28 21
-120 152 -16 21 -41 52 -58 68 -16 16 -30 34 -30 40 0 5 -7 10 -15 10 -8 0
-15 5 -15 11 0 6 -6 16 -12 24 -7 7 -24 27 -38 44 -14 17 -29 31 -35 31 -15 0
-58 40 -85 80 -33 48 -46 60 -55 52 -5 -4 -5 1 -2 11 5 12 1 17 -11 17 -9 0
-22 10 -27 21 -6 12 -14 21 -18 20 -5 -1 -25 18 -45 43 -20 25 -43 46 -49 46
-7 0 -13 7 -13 15 0 8 -12 21 -27 29 -16 8 -34 23 -42 34 -8 11 -20 18 -28 15
-9 -4 -11 0 -7 11 4 11 1 16 -10 16 -9 0 -16 4 -16 9 0 6 -14 18 -30 28 -17 9
-33 26 -36 36 -3 11 -12 16 -20 13 -9 -4 -12 -2 -8 5 3 6 -4 21 -17 35 -17 18
-25 21 -31 12 -5 -9 -8 -6 -8 10 0 20 -10 27 -32 23 -5 0 -8 9 -8 21 0 12 -3
19 -6 15 -8 -7 -34 17 -34 32 0 6 -3 10 -7 9 -13 -3 -98 86 -95 99 2 8 -3 10
-13 7 -8 -3 -15 -1 -15 5 0 7 -11 23 -25 37 -14 14 -25 29 -25 34 0 6 -6 9
-12 8 -7 -2 -12 3 -10 10 1 8 -1 11 -6 8 -4 -2 -30 18 -58 46 -27 28 -44 53
-38 55 6 2 -4 19 -23 39 -18 20 -38 32 -44 28 -7 -4 -10 -1 -7 7 5 14 -27 49
-44 49 -4 0 -8 5 -8 10 0 14 -55 70 -69 70 -6 0 -11 4 -11 10 0 11 -43 78 -65
101 -8 9 -15 19 -15 24 0 4 -11 23 -26 42 -14 18 -23 33 -20 33 8 0 -34 79
-45 86 -5 3 -9 16 -9 30 0 13 -5 24 -11 24 -6 0 -8 -7 -5 -16 3 -9 2 -12 -5
-9 -5 4 -7 16 -3 27 5 16 3 20 -9 15 -11 -4 -13 0 -9 15 3 14 1 19 -5 15 -7
-5 -9 0 -6 13 3 11 0 20 -6 20 -15 0 -52 85 -45 104 4 10 1 16 -8 16 -7 0 -22
14 -31 30 -14 22 -15 30 -5 30 11 0 11 2 0 9 -20 12 -39 52 -89 186 -48 127
-54 142 -102 248 -27 59 -34 67 -58 67 -16 0 -37 2 -48 5 -11 3 -36 -4 -55
-15z"/>
<path d="M7213 3543 c-7 -2 -10 -10 -8 -16 6 -15 -4 -29 -29 -42 -38 -22 -37
-49 5 -132 78 -152 214 -394 237 -421 l22 -27 -14 35 c-65 156 -157 419 -166
474 -14 79 -34 133 -47 129z"/>
<path d="M8401 3510 c-19 -11 -17 -68 9 -250 16 -112 20 -176 16 -244 -9 -136
-9 -137 3 -149 7 -7 15 -6 26 3 9 7 15 8 15 2 0 -6 -5 -12 -11 -14 -16 -5 -1
-51 25 -79 12 -13 21 -30 18 -37 -2 -7 2 -10 11 -6 8 3 22 -2 31 -11 9 -9 20
-13 26 -10 5 3 10 1 10 -5 0 -17 -31 -24 -40 -9 -16 25 -20 2 -5 -27 8 -16 15
-23 15 -16 0 6 6 12 14 12 15 0 27 35 19 56 -3 8 -11 14 -19 14 -8 0 -14 5
-14 11 0 5 5 7 12 3 7 -4 8 -3 4 4 -4 7 -16 12 -27 12 -11 0 -17 5 -14 10 4 6
12 7 18 4 7 -4 2 4 -10 18 -13 13 -23 28 -23 34 0 5 5 2 10 -6 7 -10 10 -11
10 -2 0 7 -6 15 -14 18 -8 3 -17 12 -20 20 -4 10 -2 13 7 8 7 -5 6 -1 -3 10
-11 14 -14 56 -16 184 -1 178 -10 258 -38 362 -22 82 -28 91 -45 80z"/>
<path d="M7567 3393 c6 -95 55 -337 84 -418 34 -99 59 -207 59 -260 0 -55 -30
-132 -55 -141 -18 -7 -18 -14 0 -37 18 -24 50 -14 53 16 1 13 18 58 38 101
l36 79 -15 56 c-8 31 -18 101 -21 156 -6 94 -37 228 -57 250 -5 5 -9 18 -9 30
0 11 -12 31 -25 44 -14 13 -25 32 -25 42 0 11 -4 28 -10 39 -24 48 -28 57 -35
88 -13 59 -24 33 -18 -45z"/>
<path d="M475 2950 c-3 -5 5 -14 19 -20 14 -5 26 -16 26 -25 0 -16 16 -20 24
-6 10 16 43 0 55 -25 6 -14 19 -24 32 -24 17 0 20 -4 15 -24 -3 -14 -2 -28 4
-31 6 -4 7 1 3 11 -4 12 -3 15 5 10 7 -4 12 -3 12 3 0 5 9 13 20 16 15 5 26 0
40 -17 11 -13 19 -17 20 -11 0 9 7 10 26 3 14 -6 54 -10 89 -10 57 0 67 -3 91
-27 15 -16 21 -20 14 -10 -12 17 -11 18 16 11 16 -4 30 -10 32 -14 4 -10 52 1
52 12 0 21 -56 81 -93 100 -35 18 -51 19 -141 13 -122 -8 -237 10 -308 50 -29
16 -49 22 -53 15z"/>
<path d="M7940 2494 c-48 -17 -75 -34 -103 -66 -21 -24 -42 -42 -47 -41 -15 4
1 -30 28 -59 28 -30 53 -39 31 -11 -12 15 -12 16 5 10 15 -6 17 -4 13 13 -3
11 -1 20 5 20 23 0 103 84 142 148 9 15 5 15 -74 -14z"/>
<path d="M2195 2491 c-6 -5 -26 -14 -45 -19 l-35 -10 31 -1 c37 -1 85 -22 81
-36 -2 -5 -20 -12 -40 -15 -28 -4 -34 -8 -28 -19 5 -7 14 -10 20 -7 6 4 11 0
11 -9 0 -32 31 -65 61 -65 22 0 30 -6 35 -24 5 -23 49 -55 60 -44 3 4 -3 15
-13 25 -10 10 -29 43 -42 73 -24 55 -28 67 -51 128 -12 32 -28 40 -45 23z"/>
</g>
</svg>
